<svg width="169" height="24" viewBox="0 0 169 24" fill="none" xmlns="http://www.w3.org/2000/svg">
<path d="M5.776 11.8C7.12 12.216 7.088 13.624 7.088 13.624V20.184C7.056 21.752 5.808 23 4.24 23H0.0800004V0.599998H4.24C5.808 0.599998 7.056 1.848 7.088 3.416V9.976C7.088 9.976 7.12 11.384 5.776 11.8ZM4.784 9.432V4.056C4.784 3.224 4.208 2.904 3.6 2.904H2.352V10.744H3.6C4.208 10.744 4.784 10.456 4.784 9.432ZM4.784 19.544V14.136C4.784 13.144 4.208 12.856 3.6 12.856H2.352V20.728H3.6C4.208 20.728 4.784 20.408 4.784 19.544ZM26.6915 23H24.1635L22.1475 7.576L20.1315 23H17.6035L20.9955 0.599998H22.2435C23.2035 0.599998 23.3635 1.208 23.4595 1.816L26.6915 23ZM40.1498 20.728H45.3338C45.0778 21.304 44.6938 22.2 44.5978 22.392C44.4378 22.68 44.0858 23 43.3498 23H37.8458V0.599998H39.4458C39.8298 0.631998 40.1498 0.919998 40.1498 1.304V20.728ZM62.1915 23H59.6635L57.6475 7.576L55.6315 23H53.1035L56.4955 0.599998H57.7435C58.7035 0.599998 58.8635 1.208 58.9595 1.816L62.1915 23ZM79.7138 3.224V6.712C79.7138 7.48 79.3938 7.8 79.0738 7.96C78.9138 8.056 78.0178 8.472 77.4098 8.728V3.608C77.4098 2.936 76.8658 2.392 76.1938 2.392C75.5218 2.392 74.9778 2.936 74.9778 3.608V19.992C74.9778 20.664 75.5218 21.208 76.1938 21.208C76.8658 21.208 77.4098 20.664 77.4098 19.992V13.304H77.3138C76.8018 13.304 76.4818 12.568 76.4818 12.568L75.7138 10.968H78.5938C79.2978 10.968 79.7138 11.352 79.7138 12.216V20.376C79.7138 21.912 78.4658 23.16 76.9298 23.224H75.5218C73.9538 23.224 72.6738 21.944 72.6738 20.376V3.224C72.6738 1.656 73.9538 0.375999 75.5218 0.375999H76.9298C78.4658 0.439999 79.7138 1.688 79.7138 3.224Z" fill="#FAA275"/>
<path d="M97.5573 11.8C98.9013 12.216 98.8693 13.624 98.8693 13.624V20.184C98.8373 21.752 97.5893 23 96.0213 23H91.8613V0.599998H96.0213C97.5893 0.599998 98.8373 1.848 98.8693 3.416V9.976C98.8693 9.976 98.9013 11.384 97.5573 11.8ZM96.5653 9.432V4.056C96.5653 3.224 95.9893 2.904 95.3813 2.904H94.1333V10.744H95.3813C95.9893 10.744 96.5653 10.456 96.5653 9.432ZM96.5653 19.544V14.136C96.5653 13.144 95.9893 12.856 95.3813 12.856H94.1333V20.728H95.3813C95.9893 20.728 96.5653 20.408 96.5653 19.544ZM114.025 20.728H119.209C118.953 21.304 118.569 22.2 118.473 22.392C118.313 22.68 117.961 23 117.225 23H111.721V0.599998H113.321C113.705 0.631998 114.025 0.919998 114.025 1.304V20.728ZM131.331 0.375999H133.091C134.627 0.439999 135.875 1.688 135.875 3.224V20.408C135.843 21.944 134.627 23.16 133.091 23.224H131.331C129.763 23.224 128.483 21.944 128.451 20.408V3.224C128.451 1.656 129.731 0.375999 131.331 0.375999ZM131.97 21.208H132.323C132.995 21.208 133.539 20.664 133.539 19.96V3.64C133.539 2.936 132.995 2.392 132.323 2.392H131.97C131.299 2.424 130.755 2.968 130.755 3.64V19.96C130.755 20.632 131.299 21.176 131.97 21.208ZM154.87 3.224V6.712C154.87 7.48 154.55 7.8 154.23 7.96C154.07 8.056 153.174 8.472 152.566 8.728V3.608C152.566 2.936 152.022 2.392 151.35 2.392C150.678 2.392 150.134 2.936 150.134 3.608V19.992C150.134 20.664 150.678 21.208 151.35 21.208C152.022 21.208 152.566 20.664 152.566 19.992V13.304H152.47C151.958 13.304 151.638 12.568 151.638 12.568L150.87 10.968H153.75C154.454 10.968 154.87 11.352 154.87 12.216V20.376C154.87 21.912 153.622 23.16 152.086 23.224H150.678C149.11 23.224 147.83 21.944 147.83 20.376V3.224C147.83 1.656 149.11 0.375999 150.678 0.375999H152.086C153.622 0.439999 154.87 1.688 154.87 3.224ZM168.49 18.264H166.57C166.186 18.264 166.186 17.88 166.186 17.88V0.599998H167.786C168.17 0.599998 168.49 0.919998 168.49 1.304V18.264ZM166.186 20.184H168.106C168.49 20.184 168.49 20.536 168.49 20.536V23H166.89C166.506 23 166.218 22.712 166.186 22.36V20.184Z" fill="#5C374C"/>
</svg>
